<svg width="28" height="29" viewBox="0 0 28 29" fill="none" xmlns="http://www.w3.org/2000/svg">
<path d="M21.63 11.0039L10.36 4.54056C9.75017 4.18842 9.058 4.00394 8.3538 4.00587C7.64959 4.00781 6.95845 4.19608 6.35055 4.55158C5.74266 4.90707 5.23969 5.41711 4.89271 6.0299C4.54573 6.64269 4.36712 7.3364 4.37501 8.04056V21.0139C4.37501 22.0721 4.79538 23.087 5.54365 23.8353C6.29192 24.5835 7.30679 25.0039 8.36501 25.0039C9.06552 25.0027 9.75344 24.8177 10.36 24.4672L21.63 18.0039C22.2356 17.6534 22.7383 17.1499 23.0879 16.5437C23.4374 15.9376 23.6214 15.2502 23.6214 14.5506C23.6214 13.8509 23.4374 13.1635 23.0879 12.5574C22.7383 11.9513 22.2356 11.4477 21.63 11.0972V11.0039ZM20.4633 15.8922L9.19334 22.4489C8.94074 22.5921 8.65535 22.6673 8.36501 22.6673C8.07466 22.6673 7.78927 22.5921 7.53667 22.4489C7.28479 22.3035 7.07563 22.0943 6.93022 21.8424C6.78481 21.5905 6.70829 21.3047 6.70834 21.0139V7.9939C6.70829 7.70304 6.78481 7.4173 6.93022 7.1654C7.07563 6.9135 7.28479 6.70432 7.53667 6.5589C7.79031 6.41791 8.07485 6.34177 8.36501 6.33723C8.65496 6.34318 8.93917 6.41924 9.19334 6.5589L20.4633 13.0689C20.7153 13.2143 20.9246 13.4234 21.0701 13.6753C21.2156 13.9272 21.2922 14.213 21.2922 14.5039C21.2922 14.7948 21.2156 15.0806 21.0701 15.3325C20.9246 15.5844 20.7153 15.7935 20.4633 15.9389V15.8922Z" fill="#B44646"/>
</svg>
